<svg version="1.0" xmlns="http://www.w3.org/2000/svg" viewBox="0 0 119 48"><style>path, polygon { fill:#1f8ee6; }</style><path fill="#1f8ee6" d="M78.3,0H64.6c-1.1,0-1.6,0.4-1.6,1.6v44.9c0,1.1,0.4,1.6,1.6,1.6h13.8c7.1,0,12.3-1.8,15.5-5.4c3.2-3.6,4.8-9.9,4.8-18.6
	c0-8.8-1.6-15-4.9-18.6C90.7,1.8,85.5,0,78.3,0z M84.5,34.3c-1.2,1.9-3.4,2.9-6.4,2.9h-2h-0.6v-0.6V11.3v-0.6h0.6H78
	c3,0,5.2,1,6.4,2.9c1.2,1.8,1.8,5.2,1.8,10.3C86.2,29.1,85.6,32.5,84.5,34.3z M55,1.6v44.9c0,1.1-0.4,1.6-1.6,1.6h-9.3
	c-1.1,0-1.6-0.4-1.6-1.6V1.6C42.6,0.4,43,0,44.1,0h9.3C54.6,0,55,0.4,55,1.6z M118.6,1.6v44.9c0,1.1-0.4,1.6-1.6,1.6h-9.3
	c-1.1,0-1.6-0.4-1.6-1.6V1.6c0-1.1,0.4-1.6,1.6-1.6h9.3C118.2,0,118.6,0.4,118.6,1.6z M27.8,31.2c4.9-2.4,7.5-7.1,7.5-14.1
	c0-6.3-1.4-10.8-4.3-13.3C28.1,1.3,23.3,0,16.8,0H1.6C0.4,0,0,0.4,0,1.6v44.9C0,47.6,0.4,48,1.6,48h9.3c1.1,0,1.6-0.4,1.6-1.6V33.9
	v-0.6h0.6h2.6h0.3l0.2,0.3l6.2,12.8c0.5,1,1.3,1.5,2.6,1.5h9.4c0.8,0,0.9-0.3,1-0.4c0.1-0.3,0.1-0.8-0.2-1.3l-7.5-14.2l-0.3-0.5
	l0.5-0.2L27.8,31.2z M21.4,22c-0.9,1.1-2.5,1.6-4.8,1.6h-3.7h-0.6V23V11v-0.6h0.6h3.7c2.3,0,3.8,0.5,4.8,1.5c0.9,1,1.3,2.6,1.3,5.1
	C22.7,19.3,22.3,21,21.4,22z"/></svg>